<svg width="19" height="19" viewBox="0 0 19 19" fill="none" xmlns="http://www.w3.org/2000/svg">
<rect width="19" height="19" fill="#373131"/>
<g clip-path="url(#clip0_84_2251)">
<rect width="595" height="973" transform="translate(-50 -206)" fill="white"/>
<path d="M8.2308 14.3461H2.38464" stroke="#292A2F" stroke-linecap="round" stroke-linejoin="round"/>
<path d="M11.1539 14.3462C11.1539 15.9908 11.7024 16.5385 13.3462 16.5385C14.9901 16.5385 15.5385 15.9908 15.5385 14.3462C15.5385 12.7016 14.9901 12.1539 13.3462 12.1539C11.7024 12.1539 11.1539 12.7016 11.1539 14.3462Z" fill="#D9D9D9" stroke="#292A2F" stroke-linecap="round" stroke-linejoin="round"/>
<path d="M9.69238 5.57696H15.5385" stroke="#292A2F" stroke-linecap="round" stroke-linejoin="round"/>
<path d="M6.76926 5.57695C6.76926 3.93308 6.22091 3.38464 4.57731 3.38464C2.93299 3.38464 2.38464 3.93308 2.38464 5.57695C2.38464 7.22154 2.93299 7.76926 4.57731 7.76926C6.22091 7.76926 6.76926 7.22154 6.76926 5.57695Z" fill="#D9D9D9" stroke="#292A2F" stroke-linecap="round" stroke-linejoin="round"/>
</g>
<defs>
<clipPath id="clip0_84_2251">
<rect width="595" height="973" fill="white" transform="translate(-50 -206)"/>
</clipPath>
</defs>
</svg>
