<svg width="19" height="19" viewBox="0 0 19 19" fill="none" xmlns="http://www.w3.org/2000/svg">
<rect width="19" height="19" fill="#373131"/>
<g id="Sergey Kulinich _CV" clip-path="url(#clip0_84_2251)">
<rect width="595" height="973" transform="translate(-50 -271)" fill="white"/>
<g id="Group 36207">
<g id="Header 3">
<g id="Frame 2">
<g id="Vector (Stroke)">
<path fill-rule="evenodd" clip-rule="evenodd" d="M4.35052 4.35052C3.44685 5.2542 2.98575 6.79718 2.98575 9.50003C2.98575 12.2029 3.44685 13.7459 4.35052 14.6495C5.2542 15.5532 6.79718 16.0143 9.50003 16.0143C12.2029 16.0143 13.7459 15.5532 14.6495 14.6495C15.5532 13.7459 16.0143 12.2029 16.0143 9.50003C16.0143 6.79718 15.5532 5.2542 14.6495 4.35052C13.7459 3.44685 12.2029 2.98575 9.50003 2.98575C6.79718 2.98575 5.2542 3.44685 4.35052 4.35052ZM3.19895 3.19895C4.58555 1.81235 6.70685 1.35718 9.50003 1.35718C12.2932 1.35718 14.4145 1.81235 15.8011 3.19895C17.1877 4.58555 17.6429 6.70685 17.6429 9.50003C17.6429 12.2932 17.1877 14.4145 15.8011 15.8011C14.4145 17.1877 12.2932 17.6429 9.50003 17.6429C6.70685 17.6429 4.58555 17.1877 3.19895 15.8011C1.81235 14.4145 1.35718 12.2932 1.35718 9.50003C1.35718 6.70685 1.81235 4.58555 3.19895 3.19895ZM9.50003 4.93787C9.94975 4.93787 10.3143 5.30244 10.3143 5.75216V13.2019C10.3143 13.6517 9.94975 14.0162 9.50003 14.0162C9.05031 14.0162 8.68575 13.6517 8.68575 13.2019V5.75216C8.68575 5.30244 9.05031 4.93787 9.50003 4.93787ZM6.07254 7.3491C6.52225 7.3491 6.88682 7.71367 6.88682 8.16339V13.2015C6.88682 13.6512 6.52225 14.0158 6.07254 14.0158C5.62282 14.0158 5.25825 13.6512 5.25825 13.2015V8.16339C5.25825 7.71367 5.62282 7.3491 6.07254 7.3491ZM12.8711 10.0115C13.3208 10.0115 13.6854 10.376 13.6854 10.8257V13.2018C13.6854 13.6515 13.3208 14.0161 12.8711 14.0161C12.4214 14.0161 12.0568 13.6515 12.0568 13.2018V10.8257C12.0568 10.376 12.4214 10.0115 12.8711 10.0115Z" fill="#292A2F"/>
<path fill-rule="evenodd" clip-rule="evenodd" d="M2.98575 9.50003C2.98575 6.79718 3.44685 5.2542 4.35052 4.35052C5.2542 3.44685 6.79718 2.98575 9.50003 2.98575C12.2029 2.98575 13.7459 3.44685 14.6495 4.35052C15.5532 5.2542 16.0143 6.79718 16.0143 9.50003C16.0143 12.2029 15.5532 13.7459 14.6495 14.6495C13.7459 15.5532 12.2029 16.0143 9.50003 16.0143C6.79718 16.0143 5.2542 15.5532 4.35052 14.6495C3.44685 13.7459 2.98575 12.2029 2.98575 9.50003ZM9.50003 4.93787C9.94975 4.93787 10.3143 5.30244 10.3143 5.75216V13.2019C10.3143 13.6517 9.94975 14.0162 9.50003 14.0162C9.05031 14.0162 8.68575 13.6517 8.68575 13.2019V5.75216C8.68575 5.30244 9.05031 4.93787 9.50003 4.93787ZM6.07254 7.3491C6.52225 7.3491 6.88682 7.71367 6.88682 8.16339V13.2015C6.88682 13.6512 6.52225 14.0158 6.07254 14.0158C5.62282 14.0158 5.25825 13.6512 5.25825 13.2015V8.16339C5.25825 7.71367 5.62282 7.3491 6.07254 7.3491ZM12.8711 10.0115C13.3208 10.0115 13.6854 10.376 13.6854 10.8257V13.2018C13.6854 13.6515 13.3208 14.0161 12.8711 14.0161C12.4214 14.0161 12.0568 13.6515 12.0568 13.2018V10.8257C12.0568 10.376 12.4214 10.0115 12.8711 10.0115Z" fill="#D9D9D9"/>
</g>
</g>
</g>
</g>
</g>
<defs>
<clipPath id="clip0_84_2251">
<rect width="595" height="973" fill="white" transform="translate(-50 -271)"/>
</clipPath>
</defs>
</svg>
