<svg width="19" height="19" viewBox="0 0 19 19" fill="none" xmlns="http://www.w3.org/2000/svg">
<path d="M14.2982 14.2974C12.2251 16.3715 9.1536 16.8196 6.64066 15.6574C6.26968 15.508 3.86857 16.173 3.34757 15.6526C2.82657 15.1315 3.49214 12.7301 3.3428 12.3591C2.18009 9.84647 2.62881 6.77392 4.70259 4.70054C7.34987 2.05221 11.6509 2.05221 14.2982 4.70054C16.9509 7.35296 16.9454 11.6498 14.2982 14.2974Z" fill="#D9D9D9"/>
<path d="M12.1731 9.78026H12.1792M9.45272 9.78026H9.45883M6.73233 9.78026H6.73843M14.2981 14.2974C12.2251 16.3715 9.1536 16.8196 6.64066 15.6574C6.26968 15.508 3.86857 16.173 3.34757 15.6526C2.82657 15.1315 3.49214 12.7301 3.3428 12.3591C2.18009 9.84647 2.62881 6.77392 4.70259 4.70054C7.34987 2.05221 11.6509 2.05221 14.2981 4.70054C16.9509 7.35296 16.9454 11.6498 14.2981 14.2974Z" stroke="#292A2F" stroke-linecap="round" stroke-linejoin="round"/>
</svg>
