<svg width="23" height="23" viewBox="0 0 23 23" fill="none" xmlns="http://www.w3.org/2000/svg">
<rect width="23" height="23" fill="#373131"/>
<g clip-path="url(#clip0_84_2251)">
<rect width="595" height="973" transform="translate(-208 -863)" fill="white"/>
<path d="M18.5715 11.5V10.7735L17.8929 11.033L11.5489 13.4593L6.84489 11.078L6.11906 10.7105V11.5241V17.1736C6.11906 17.3851 6.20331 17.5919 6.35871 17.7433L6.70768 17.3852L6.35872 17.7433C9.73949 21.0379 14.9511 21.0379 18.3319 17.7433C18.4873 17.5919 18.5715 17.3851 18.5715 17.1736V11.5Z" fill="#D9D9D9" stroke="#292A2F"/>
<path d="M2.28231 7.91905L10.3952 3.64912C11.3548 3.14408 12.4746 3.16652 13.4168 3.70966L20.7542 7.93922C21.5581 8.40259 21.5581 9.66882 20.7542 10.1322L13.4168 14.3618C12.4746 14.9049 11.3548 14.9273 10.3952 14.4223L2.28231 10.1524C1.42966 9.7036 1.42966 8.36781 2.28231 7.91905Z" fill="#D9D9D9" stroke="#292A2F"/>
<path d="M22.1785 14.7857C22.1785 15.2394 21.8107 15.6072 21.3571 15.6072C20.9034 15.6072 20.5356 15.2394 20.5356 14.7857C20.5356 14.3321 20.9034 13.9643 21.3571 13.9643C21.8107 13.9643 22.1785 14.3321 22.1785 14.7857Z" fill="#292A2F"/>
<path d="M21.3572 13.7857V8.85712" stroke="#292A2F"/>
</g>
<defs>
<clipPath id="clip0_84_2251">
<rect width="595" height="973" fill="white" transform="translate(-208 -863)"/>
</clipPath>
</defs>
</svg>
