<svg width="19" height="19" viewBox="0 0 19 19" fill="none" xmlns="http://www.w3.org/2000/svg">
<path d="M2.53333 10.7666C2.53333 6.49182 4.11683 5.06665 8.86666 5.06665C13.6172 5.06665 15.2 6.49182 15.2 10.7666C15.2 15.0415 13.6172 16.4666 8.86666 16.4666C4.11683 16.4666 2.53333 15.0415 2.53333 10.7666Z" fill="#D9D9D9" stroke="#292A2F" stroke-linecap="round" stroke-linejoin="round"/>
<path d="M8.77628 14.069V11.5357" stroke="#292A2F" stroke-linecap="round" stroke-linejoin="round"/>
<path d="M14.5893 7.80359C12.9089 8.58647 11.2386 9.16073 8.82145 9.16073C6.40425 9.16073 4.73327 8.92575 3.05359 8.14287" stroke="#292A2F" stroke-linecap="round" stroke-linejoin="round"/>
<path d="M11.4 5.06666V4.5199C11.4 3.4229 10.6833 2.53333 9.80045 2.53333H7.93297C7.05008 2.53333 6.33337 3.4229 6.33337 4.5199V5.06666" stroke="#292A2F" stroke-linecap="round" stroke-linejoin="round"/>
</svg>
